# xmcd
#
# Track frame offsets:
#	150
#	17794
#	32086
#	50115
#	63143
#	78686
#	94352
#	112824
#	129722
#	149258
#	165088
#	183651
#	202048
#	218980
#
# Disc length: 3143 seconds
#
# Revision: 1
# Processed by: cddbd v1.5.2PL0 Copyright (c) Steve Scherf et al.
# Submitted via: audiograbber 1.83.01
#
DISCID=ca0c450e
DTITLE=Various Artist - CDX 568
DYEAR=2013
DGENRE=Country
TTITLE0=Blake Shelton ft. Pistol Annies and Friends - Boys Round Here
TTITLE1=Locash Cowboys - Chase A Little Love (Radio Edit)
TTITLE2=Luke Bryan - Crash My Party
TTITLE3=Eric Paslay - Friday Night
TTITLE4=The Randy Rogers Band - Fuzzy
TTITLE5=Pistol Annies - Hush Hush
TTITLE6=Carrie Underwood - See You Again
TTITLE7=Joe Diffie, Sammy Kershaw and Aaron Tippin - All In The Same Boat (Radio 
TTITLE7=Edit)
TTITLE8=IMAJ - Guess Who's Coming To Dinner
TTITLE9=David Shelby - Kick A Little Dirt Around
TTITLE10=Joe Allen - Looks Like It's Raining
TTITLE11=Eric Ziegler - Nicotine
TTITLE12=The Chris Weaver Band - So Damn Beautiful
TTITLE13=Frank Ortega - Two Places At Once
EXTD=
EXTT0=
EXTT1=
EXTT2=
EXTT3=
EXTT4=
EXTT5=
EXTT6=
EXTT7=
EXTT8=
EXTT9=
EXTT10=
EXTT11=
EXTT12=
EXTT13=
PLAYORDER=
